<svg width="124" height="134" viewBox="0 0 124 134" fill="none" xmlns="http://www.w3.org/2000/svg">
<path d="M96 72C96 76.7955 91.5732 81.8059 82.829 85.7318C74.2743 89.5727 62.3157 92 49 92C35.6843 92 23.7257 89.5727 15.1709 85.7318C6.42681 81.8059 2 76.7955 2 72C2 67.2045 6.42681 62.1941 15.1709 58.2682C23.7257 54.4273 35.6843 52 49 52C62.3157 52 74.2743 54.4273 82.829 58.2682C91.5732 62.1941 96 67.2045 96 72Z" fill="white" stroke="#3A3A3A" stroke-width="4"/>
<path d="M89.5 71.5C89.5 72.9109 88.6463 74.5373 86.4769 76.288C84.3317 78.0193 81.1665 79.642 77.2447 81.0322C69.4186 83.8064 59.0238 85.5 49 85.5C38.9762 85.5 28.5814 83.8064 20.7553 81.0322C16.8335 79.642 13.6683 78.0193 11.5231 76.288C9.3537 74.5373 8.5 72.9109 8.5 71.5C8.5 70.0891 9.3537 68.4627 11.5231 66.712C13.6683 64.9807 16.8335 63.358 20.7553 61.9678C28.5814 59.1936 38.9762 57.5 49 57.5C59.0238 57.5 69.4186 59.1936 77.2447 61.9678C81.1665 63.358 84.3317 64.9807 86.4769 66.712C88.6463 68.4627 89.5 70.0891 89.5 71.5Z" fill="#3A3A3A" stroke="#3A3A3A" stroke-width="4"/>
<path d="M47.7027 131.992C1 131.202 1.99998 72 1.99998 72C1.99998 72 2 92 47.7027 92C96 92 96 72 96 72C96 72 97 132.825 47.7027 131.992Z" fill="white" stroke="#3A3A3A" stroke-width="4"/>
<path d="M122 87.5C122 73.5 96 75 96 75L95.5001 82.5C95.5001 82.5 114.5 80.5365 114.5 90C114.501 115.011 89.2175 112.04 85.4997 112.04L80.5 119.5C86 119.5 122.001 124.5 122 87.5Z" fill="white" stroke="#3A3A3A" stroke-width="4"/>
<path d="M25.3526 72.1923C21.006 75.7929 42.2088 54.7655 44.0428 65.2668C45.0333 70.9383 39.3573 70.3925 39.3573 70.3925C39.3573 70.3925 45.1686 69.8706 45.2323 74.7025C45.4216 89.062 29.6992 68.5916 25.3526 72.1923Z" fill="white"/>
<path d="M43.402 70.1985C41.0613 72.4975 52.6633 58.7806 53.0124 66.4955C53.201 70.6621 50.4231 69.8728 50.4231 69.8728C50.4231 69.8728 53.3246 69.9001 53.0995 73.3956C52.4304 83.7835 45.7427 67.8995 43.402 70.1985Z" fill="white"/>
<path d="M52.5905 70.5785C50.5136 72.8812 60.8116 59.1458 61.1084 66.86C61.2686 71.0261 58.8095 70.2413 58.8095 70.2413C58.8095 70.2413 61.3794 70.2639 61.1743 73.7597C60.5648 84.1485 54.6673 68.2757 52.5905 70.5785Z" fill="white"/>
<path d="M60.2924 70.3351C58.4629 71.5636 67.5229 64.2256 67.824 68.3768C67.9867 70.6188 65.8031 70.1845 65.8031 70.1845C65.8031 70.1845 68.0811 70.2093 67.9166 72.0888C67.4277 77.6744 62.1219 69.1066 60.2924 70.3351Z" fill="white"/>
<path d="M36.4373 42.9867C23.8459 28.6427 37.2315 25.4465 37.2315 15.8703C37.2315 6.29417 30.542 2 30.542 2" stroke="#3A3A3A" stroke-width="4"/>
<path d="M48.7329 43.0248C36.1416 28.6808 49.5272 25.4846 49.5272 15.9084C49.5272 6.33226 42.8377 2.03808 42.8377 2.03808" stroke="#3A3A3A" stroke-width="4"/>
<path d="M60.7917 43.0248C48.2004 28.6808 61.586 25.4846 61.586 15.9084C61.586 6.33226 54.8965 2.03808 54.8965 2.03808" stroke="#3A3A3A" stroke-width="4"/>
</svg>
