<svg width="301" height="264" viewBox="0 0 301 264" fill="none" xmlns="http://www.w3.org/2000/svg">
<path d="M186.394 203.649C202.253 203.649 215.146 190.949 215.457 175.164C208.867 155.626 196.896 138.515 181.279 125.546V129.225C181.279 134.739 174.321 137.155 170.903 132.829L150.948 107.567C138.09 102.475 124.05 99.6738 109.349 99.6738C100.273 99.6738 91.4491 100.741 83 102.756V174.581C83 190.635 96.4463 203.649 112.5 203.649L115.76 203.649L115.759 135.039C115.759 129.513 122.742 127.104 126.15 131.454L182.703 203.649L186.394 203.649Z" fill="#62A679"/>
<path d="M215.463 90.2847V174.581L215.457 175.164C208.868 155.626 196.896 138.515 181.279 125.546V61.2168L186.395 61.2168C202.449 61.2168 215.463 74.2309 215.463 90.2847Z" fill="#B2C7F9"/>
<path d="M83 90.2847C83 74.2309 96.0141 61.2168 112.068 61.2168C113.5 61.2168 114.853 61.8723 115.741 62.996L150.948 107.567C138.09 102.475 124.05 99.6738 109.349 99.6738C100.273 99.6738 91.4491 100.741 83 102.756V90.2847Z" fill="#B2C7F9"/>
<path d="M182.719 57V129.344C182.719 134.887 175.742 137.316 172.315 132.967L116.995 62.7613C116.106 61.6336 114.749 60.9755 113.314 60.9755V60.9755C97.2148 60.9755 84.1641 74.0585 84.1641 90.1972V174.94C84.1641 191.079 96.5505 204.754 115.161 204.754M117.016 208.067V135.188C117.016 129.634 124.018 127.211 127.435 131.584L184.948 204.754C201.047 204.754 216.999 191.079 216.999 174.94V90.1972C216.999 74.0585 204.592 60.1017 182.719 60.1017" stroke="#4C74FF" stroke-width="6"/>
<path d="M268.014 41.1404L232.701 61.5073L229.949 57.7609L263.249 32.5579L268.014 41.1404Z" fill="#4C74FF"/>
<path d="M241.077 14.1546L220.734 50.3182L224.474 53.1513L248.502 19.7702L241.077 14.1546Z" fill="#4C74FF"/>
<path d="M28.9509 103.237C33.5132 95.7974 36.4015 80.9066 36.4015 80.9066C36.4015 80.9066 35.5674 96.8367 40.6039 103.627C43.9523 108.141 54.2306 110.497 54.2306 110.497C54.2306 110.497 44.6289 111.701 40.9534 118.543C36.6931 126.474 36.733 148.6 36.733 148.6C36.733 148.6 35.7206 126.791 31.2 119.865C27.3978 114.04 15.6627 109.864 15.6627 109.864C15.6627 109.864 25.3233 109.153 28.9509 103.237Z" stroke="#4C74FF" stroke-width="8"/>
<path d="M267.904 181.382C263.927 187.551 261.785 206.5 261.785 206.5C261.785 206.5 261.976 186.717 257.036 181.181C253.752 177.501 245 175.793 245 175.793C245 175.793 252.991 174.578 256.163 168.91C259.841 162.34 260.5 138 260.5 138C260.5 138 260.735 162.069 265.199 167.722C268.954 172.477 280.038 175.793 280.038 175.793C280.038 175.793 271.066 176.477 267.904 181.382Z" stroke="#4C74FF" stroke-width="8"/>
</svg>
