<svg width="307" height="264" viewBox="0 0 307 264" fill="none" xmlns="http://www.w3.org/2000/svg">
<path d="M70 146.755H72.3545C75.1159 146.755 77.3545 148.994 77.3545 151.755V179C77.3545 184.523 81.8317 189 87.3545 189H222C233.046 189 242 180.046 242 169V119.204C242 113.681 237.523 109.204 232 109.204H228.311C225.549 109.204 223.311 106.966 223.311 104.204V84C223.311 78.4772 218.833 74 213.311 74H80C68.9543 74 60 82.9543 60 94V136.755C60 142.278 64.4772 146.755 70 146.755Z" fill="#E0E0E0" stroke="#3A3A3A" stroke-width="6"/>
<path d="M77 126.963V126.489L77.9461 126.157C78.5769 125.968 78.9868 125.683 79.1761 125.304C79.3968 124.925 79.5072 124.42 79.5072 123.788V98.9597C79.5072 98.328 79.3968 97.8225 79.1761 97.4435C78.9553 97.0644 78.5296 96.7643 77.8988 96.5432L77 96.1642V95.6903H88.4953C93.1943 95.6903 96.5846 96.559 98.666 98.2964C100.779 100.002 101.835 102.261 101.835 105.072C101.835 106.873 101.394 108.531 100.511 110.047C99.6594 111.532 98.2403 112.716 96.2534 113.601C94.2666 114.485 91.5859 114.928 88.2115 114.928H86.6031V123.646C86.6031 124.878 87.218 125.683 88.448 126.062L89.8672 126.489V126.963H77ZM86.6031 113.98H88.4007C89.946 113.98 91.2075 113.727 92.1851 113.222C93.1628 112.716 93.8881 111.832 94.3612 110.568C94.8343 109.305 95.0708 107.552 95.0708 105.309C95.0708 103.035 94.8027 101.266 94.2666 100.002C93.762 98.7386 93.0051 97.8699 91.9959 97.3961C90.9867 96.8907 89.7252 96.638 88.2115 96.638H86.6031V113.98Z" fill="#6D6D6D"/>
<path d="M103.287 126.963V126.489L103.855 126.299C104.99 125.92 105.558 125.13 105.558 123.93V98.5807C105.558 97.9489 105.432 97.4751 105.179 97.1592C104.927 96.8117 104.486 96.559 103.855 96.4011L103.24 96.2589V95.7851L111.897 93.7477L112.464 94.1741L112.275 100.808V117.012C112.275 118.181 112.275 119.35 112.275 120.519C112.307 121.656 112.323 122.793 112.323 123.93C112.323 124.562 112.449 125.083 112.701 125.494C112.953 125.873 113.379 126.157 113.978 126.347L114.593 126.489V126.963H103.287Z" fill="#6D6D6D"/>
<path d="M123.126 127.673C121.296 127.673 119.751 127.152 118.49 126.11C117.26 125.067 116.645 123.567 116.645 121.608C116.645 120.124 117.402 118.765 118.915 117.534C120.429 116.27 122.81 115.322 126.059 114.691C126.563 114.596 127.131 114.501 127.762 114.406C128.392 114.28 129.055 114.154 129.748 114.027V110.284C129.748 108.136 129.48 106.636 128.944 105.783C128.44 104.898 127.635 104.456 126.532 104.456C125.775 104.456 125.176 104.709 124.734 105.214C124.293 105.688 124.009 106.525 123.883 107.725L123.788 108.247C123.725 109.605 123.394 110.6 122.795 111.232C122.195 111.863 121.454 112.179 120.571 112.179C119.751 112.179 119.073 111.927 118.537 111.421C118.001 110.916 117.733 110.237 117.733 109.384C117.733 108.089 118.174 106.999 119.057 106.114C119.972 105.23 121.17 104.567 122.653 104.124C124.135 103.682 125.743 103.461 127.478 103.461C130.285 103.461 132.445 104.156 133.959 105.546C135.504 106.904 136.277 109.131 136.277 112.227V122.698C136.277 124.12 136.939 124.83 138.263 124.83H139.304L139.73 125.209C139.131 125.968 138.468 126.552 137.743 126.963C137.049 127.373 136.056 127.579 134.763 127.579C133.375 127.579 132.271 127.263 131.451 126.631C130.663 125.968 130.143 125.099 129.89 124.025C128.944 125.036 127.967 125.904 126.957 126.631C125.98 127.326 124.703 127.673 123.126 127.673ZM126.011 124.783C126.642 124.783 127.225 124.641 127.762 124.357C128.329 124.041 128.992 123.567 129.748 122.935V114.975C129.433 115.038 129.118 115.101 128.802 115.164C128.487 115.228 128.124 115.291 127.714 115.354C126.264 115.733 125.097 116.381 124.214 117.297C123.362 118.181 122.936 119.381 122.936 120.898C122.936 122.193 123.236 123.172 123.835 123.835C124.434 124.467 125.16 124.783 126.011 124.783Z" fill="#6D6D6D"/>
<path d="M140.611 126.963V126.489L141.273 126.299C142.377 125.983 142.929 125.209 142.929 123.977V109.147C142.929 108.452 142.819 107.947 142.598 107.631C142.377 107.283 141.951 107.046 141.321 106.92L140.611 106.73V106.257L148.7 103.508L149.173 103.982L149.552 106.825C150.656 105.846 151.901 105.04 153.289 104.409C154.677 103.777 156.048 103.461 157.405 103.461C159.486 103.461 161.079 104.03 162.182 105.167C163.318 106.304 163.885 108.041 163.885 110.379V124.025C163.885 125.257 164.485 126.031 165.683 126.347L166.109 126.489V126.963H154.945V126.489L155.56 126.299C156.663 125.952 157.215 125.178 157.215 123.977V108.863C157.215 106.841 156.206 105.83 154.188 105.83C152.8 105.83 151.286 106.525 149.646 107.915V124.025C149.646 125.257 150.198 126.031 151.302 126.347L151.728 126.489V126.963H140.611Z" fill="#6D6D6D"/>
<path d="M176.717 127.673C174.698 127.673 173.121 127.168 171.986 126.157C170.882 125.146 170.33 123.535 170.33 121.324V105.119H167.066V104.646L168.202 104.456C169.179 104.235 170.015 103.919 170.709 103.508C171.434 103.098 172.144 102.545 172.838 101.85L176.717 97.5382H177.19L177.048 104.172H182.346V105.119H177.001V122.177C177.001 123.283 177.237 124.12 177.71 124.688C178.215 125.257 178.845 125.541 179.602 125.541C180.265 125.541 180.848 125.383 181.353 125.067C181.857 124.72 182.362 124.262 182.866 123.693L183.34 124.167C182.709 125.241 181.842 126.094 180.738 126.726C179.634 127.357 178.294 127.673 176.717 127.673Z" fill="#6D6D6D"/>
<path d="M98.6124 168.289V167.815L99.5585 167.484C100.189 167.294 100.599 167.01 100.788 166.631C101.009 166.252 101.12 165.746 101.12 165.115V140.286C101.12 139.655 101.009 139.149 100.788 138.77C100.568 138.391 100.142 138.091 99.5112 137.87L98.6124 137.491V137.017H110.108C114.807 137.017 118.197 137.886 120.278 139.623C122.391 141.329 123.448 143.587 123.448 146.399C123.448 148.199 123.006 149.858 122.123 151.374C121.272 152.858 119.853 154.043 117.866 154.927C115.879 155.812 113.198 156.254 109.824 156.254H108.215V164.973C108.215 166.204 108.83 167.01 110.06 167.389L111.48 167.815V168.289H98.6124ZM108.215 155.307H110.013C111.558 155.307 112.82 155.054 113.798 154.548C114.775 154.043 115.501 153.159 115.974 151.895C116.447 150.632 116.683 148.878 116.683 146.636C116.683 144.361 116.415 142.592 115.879 141.329C115.374 140.065 114.617 139.197 113.608 138.723C112.599 138.217 111.338 137.965 109.824 137.965H108.215V155.307Z" fill="#6D6D6D"/>
<path d="M124.9 168.289V167.815L125.467 167.626C126.603 167.247 127.17 166.457 127.17 165.257V139.907C127.17 139.276 127.044 138.802 126.792 138.486C126.539 138.138 126.098 137.886 125.467 137.728L124.852 137.586V137.112L133.509 135.074L134.077 135.501L133.888 142.134V158.339C133.888 159.508 133.888 160.677 133.888 161.845C133.919 162.982 133.935 164.12 133.935 165.257C133.935 165.889 134.061 166.41 134.313 166.82C134.566 167.199 134.991 167.484 135.591 167.673L136.206 167.815V168.289H124.9Z" fill="#6D6D6D"/>
<path d="M144.738 169C142.909 169 141.364 168.479 140.102 167.436C138.872 166.394 138.257 164.894 138.257 162.935C138.257 161.45 139.014 160.092 140.528 158.86C142.042 157.597 144.423 156.649 147.671 156.017C148.176 155.923 148.743 155.828 149.374 155.733C150.005 155.607 150.667 155.48 151.361 155.354V151.611C151.361 149.463 151.093 147.962 150.557 147.109C150.052 146.225 149.248 145.783 148.144 145.783C147.387 145.783 146.788 146.035 146.346 146.541C145.905 147.015 145.621 147.852 145.495 149.052L145.4 149.573C145.337 150.932 145.006 151.927 144.407 152.558C143.808 153.19 143.067 153.506 142.184 153.506C141.364 153.506 140.686 153.253 140.149 152.748C139.613 152.243 139.345 151.563 139.345 150.71C139.345 149.415 139.787 148.326 140.67 147.441C141.584 146.557 142.783 145.893 144.265 145.451C145.747 145.009 147.356 144.788 149.09 144.788C151.897 144.788 154.057 145.483 155.571 146.873C157.116 148.231 157.889 150.458 157.889 153.553V164.025C157.889 165.446 158.551 166.157 159.876 166.157H160.917L161.342 166.536C160.743 167.294 160.081 167.879 159.355 168.289C158.662 168.7 157.668 168.905 156.375 168.905C154.988 168.905 153.884 168.589 153.064 167.958C152.275 167.294 151.755 166.426 151.503 165.352C150.557 166.362 149.579 167.231 148.57 167.958C147.592 168.653 146.315 169 144.738 169ZM147.624 166.11C148.254 166.11 148.838 165.968 149.374 165.683C149.942 165.367 150.604 164.894 151.361 164.262V156.302C151.045 156.365 150.73 156.428 150.415 156.491C150.099 156.554 149.737 156.617 149.327 156.681C147.876 157.06 146.709 157.707 145.826 158.623C144.975 159.508 144.549 160.708 144.549 162.224C144.549 163.519 144.848 164.499 145.448 165.162C146.047 165.794 146.772 166.11 147.624 166.11Z" fill="#6D6D6D"/>
<path d="M174.048 169C171.903 169 169.948 168.542 168.182 167.626C166.447 166.678 165.06 165.32 164.019 163.551C163.01 161.751 162.505 159.555 162.505 156.965C162.505 154.406 163.057 152.227 164.161 150.426C165.296 148.594 166.794 147.204 168.655 146.257C170.547 145.277 172.613 144.788 174.852 144.788C176.681 144.788 178.226 145.088 179.488 145.688C180.749 146.288 181.711 147.078 182.373 148.057C183.036 149.005 183.367 150 183.367 151.042C183.367 151.927 183.099 152.622 182.563 153.127C182.026 153.601 181.333 153.838 180.481 153.838C179.567 153.838 178.825 153.506 178.258 152.843C177.69 152.179 177.359 151.311 177.264 150.237C177.233 149.542 177.249 148.957 177.312 148.484C177.375 147.978 177.375 147.473 177.312 146.967C177.186 146.43 176.981 146.083 176.697 145.925C176.444 145.735 176.082 145.641 175.609 145.641C173.685 145.641 172.187 146.478 171.115 148.152C170.074 149.826 169.554 152.495 169.554 156.159C169.554 159.35 170.137 161.798 171.304 163.504C172.502 165.178 174.331 166.015 176.791 166.015C178.274 166.015 179.472 165.746 180.387 165.209C181.301 164.672 182.184 163.867 183.036 162.793L183.509 163.172C182.72 165.036 181.506 166.473 179.866 167.484C178.226 168.495 176.287 169 174.048 169Z" fill="#6D6D6D"/>
<path d="M197.288 144.788C199.338 144.788 201.088 145.214 202.539 146.067C203.99 146.888 205.093 148.025 205.85 149.479C206.639 150.9 207.033 152.527 207.033 154.359C207.033 154.706 207.017 155.07 206.986 155.449C206.954 155.796 206.891 156.112 206.796 156.396H192.699C192.731 159.808 193.33 162.272 194.497 163.788C195.695 165.273 197.461 166.015 199.795 166.015C201.372 166.015 202.649 165.762 203.627 165.257C204.605 164.751 205.519 164.009 206.371 163.03L206.844 163.456C205.866 165.194 204.557 166.552 202.917 167.531C201.309 168.51 199.369 169 197.099 169C194.86 169 192.873 168.526 191.138 167.579C189.404 166.599 188.048 165.209 187.07 163.409C186.092 161.608 185.603 159.46 185.603 156.965C185.603 154.375 186.171 152.179 187.307 150.379C188.442 148.547 189.893 147.157 191.659 146.209C193.456 145.262 195.333 144.788 197.288 144.788ZM197.146 145.735C196.232 145.735 195.443 146.02 194.781 146.588C194.15 147.125 193.645 148.104 193.267 149.526C192.92 150.916 192.731 152.89 192.699 155.449H200.789C201.104 152.006 200.978 149.526 200.41 148.01C199.843 146.493 198.754 145.735 197.146 145.735Z" fill="#6D6D6D"/>
<path d="M216.02 123.715C209.033 122.825 198.1 137.501 198.1 137.501C198.1 137.501 205.721 132.877 216.117 133.049C220.905 133.128 228 128.12 228 128.12C228 128.12 222.252 124.508 216.02 123.715Z" fill="#6D6D6D"/>
<path d="M189.865 116.208C185.013 101.626 195.016 86 195.016 86C195.016 86 212.477 100.722 209.461 117.639C208.072 125.43 190.946 141.938 190.946 141.938C190.946 141.938 193.903 128.342 189.865 116.208Z" fill="#6D6D6D"/>
</svg>
