<svg width="307" height="264" viewBox="0 0 307 264" fill="none" xmlns="http://www.w3.org/2000/svg">
<path d="M42.535 224.21L71.5963 195.622L75.2019 198.557L49.3046 231.32L42.535 224.21Z" fill="#00A60A"/>
<path d="M75.3887 243.557L85.9899 203.441L81.6576 201.639L66.7901 239.988L75.3887 243.557Z" fill="#00A60A"/>
<path d="M27.5655 206.841L63.6021 186.274L61.8496 181.922L24.0817 198.208L27.5655 206.841Z" fill="#00A60A"/>
<path d="M71 145.755H73.3545C76.1159 145.755 78.3545 147.994 78.3545 150.755V178C78.3545 183.523 82.8317 188 88.3545 188H223C234.046 188 243 179.046 243 168V118.204C243 112.681 238.523 108.204 233 108.204H229.311C226.549 108.204 224.311 105.966 224.311 103.204V83C224.311 77.4772 219.833 73 214.311 73H81C69.9543 73 61 81.9543 61 93V135.755C61 141.278 65.4772 145.755 71 145.755Z" fill="#E1E1CF" stroke="#00A60A" stroke-width="6"/>
<path d="M275.378 146.175C280.179 137.234 282.761 119.681 282.761 119.681C282.761 119.681 282.539 138.336 288.514 145.994C292.486 151.085 304.162 153.276 304.162 153.276C304.162 153.276 293.408 155.206 289.578 163.4C285.139 172.898 286.179 198.743 286.179 198.743C286.179 198.743 284.058 173.322 278.658 165.477C274.116 158.879 260.717 154.641 260.717 154.641C260.717 154.641 271.561 153.283 275.378 146.175Z" stroke="#00A60A" stroke-width="8"/>
<path d="M21.5305 48.3736C27.1852 38.4795 30.1328 19.0036 30.1328 19.0036C30.1328 19.0036 30.004 39.7206 37.1784 48.2685C41.9481 53.9514 55.875 56.4702 55.875 56.4702C55.875 56.4702 43.0763 58.5359 38.5734 67.6082C33.3541 78.1238 34.7818 106.835 34.7818 106.835C34.7818 106.835 32.0699 78.5863 25.5788 69.8348C20.1192 62.474 4.12592 57.6691 4.12592 57.6691C4.12592 57.6691 17.0343 56.2406 21.5305 48.3736Z" stroke="#00A60A" stroke-width="8"/>
<path d="M78 125.963V125.489L78.9461 125.157C79.5769 124.968 79.9868 124.683 80.1761 124.304C80.3968 123.925 80.5072 123.42 80.5072 122.788V97.9597C80.5072 97.328 80.3968 96.8225 80.1761 96.4435C79.9553 96.0644 79.5296 95.7643 78.8988 95.5432L78 95.1642V94.6903H89.4953C94.1943 94.6903 97.5846 95.559 99.666 97.2964C101.779 99.0021 102.835 101.261 102.835 104.072C102.835 105.873 102.394 107.531 101.511 109.047C100.659 110.532 99.2403 111.716 97.2534 112.601C95.2666 113.485 92.5859 113.928 89.2115 113.928H87.6031V122.646C87.6031 123.878 88.218 124.683 89.448 125.062L90.8672 125.489V125.963H78ZM87.6031 112.98H89.4007C90.946 112.98 92.2075 112.727 93.1851 112.222C94.1628 111.716 94.8881 110.832 95.3612 109.568C95.8343 108.305 96.0708 106.552 96.0708 104.309C96.0708 102.035 95.8027 100.266 95.2666 99.0021C94.762 97.7386 94.0051 96.8699 92.9959 96.3961C91.9867 95.8907 90.7252 95.638 89.2115 95.638H87.6031V112.98Z" fill="#407343"/>
<path d="M104.287 125.963V125.489L104.855 125.299C105.99 124.92 106.558 124.13 106.558 122.93V97.5807C106.558 96.9489 106.432 96.4751 106.179 96.1592C105.927 95.8117 105.486 95.559 104.855 95.4011L104.24 95.2589V94.7851L112.897 92.7477L113.464 93.1741L113.275 99.8076V116.012C113.275 117.181 113.275 118.35 113.275 119.519C113.307 120.656 113.323 121.793 113.323 122.93C113.323 123.562 113.449 124.083 113.701 124.494C113.953 124.873 114.379 125.157 114.978 125.347L115.593 125.489V125.963H104.287Z" fill="#407343"/>
<path d="M124.126 126.673C122.296 126.673 120.751 126.152 119.49 125.11C118.26 124.067 117.645 122.567 117.645 120.608C117.645 119.124 118.402 117.765 119.915 116.534C121.429 115.27 123.81 114.322 127.059 113.691C127.563 113.596 128.131 113.501 128.762 113.406C129.392 113.28 130.055 113.154 130.748 113.027V109.284C130.748 107.136 130.48 105.636 129.944 104.783C129.44 103.898 128.635 103.456 127.532 103.456C126.775 103.456 126.176 103.709 125.734 104.214C125.293 104.688 125.009 105.525 124.883 106.725L124.788 107.247C124.725 108.605 124.394 109.6 123.795 110.232C123.195 110.863 122.454 111.179 121.571 111.179C120.751 111.179 120.073 110.927 119.537 110.421C119.001 109.916 118.733 109.237 118.733 108.384C118.733 107.089 119.174 105.999 120.057 105.114C120.972 104.23 122.17 103.567 123.653 103.124C125.135 102.682 126.743 102.461 128.478 102.461C131.285 102.461 133.445 103.156 134.959 104.546C136.504 105.904 137.277 108.131 137.277 111.227V121.698C137.277 123.12 137.939 123.83 139.263 123.83H140.304L140.73 124.209C140.131 124.968 139.468 125.552 138.743 125.963C138.049 126.373 137.056 126.579 135.763 126.579C134.375 126.579 133.271 126.263 132.451 125.631C131.663 124.968 131.143 124.099 130.89 123.025C129.944 124.036 128.967 124.904 127.957 125.631C126.98 126.326 125.703 126.673 124.126 126.673ZM127.011 123.783C127.642 123.783 128.225 123.641 128.762 123.357C129.329 123.041 129.992 122.567 130.748 121.935V113.975C130.433 114.038 130.118 114.101 129.802 114.164C129.487 114.228 129.124 114.291 128.714 114.354C127.264 114.733 126.097 115.381 125.214 116.297C124.362 117.181 123.936 118.381 123.936 119.898C123.936 121.193 124.236 122.172 124.835 122.835C125.434 123.467 126.16 123.783 127.011 123.783Z" fill="#407343"/>
<path d="M141.611 125.963V125.489L142.273 125.299C143.377 124.983 143.929 124.209 143.929 122.977V108.147C143.929 107.452 143.819 106.947 143.598 106.631C143.377 106.283 142.951 106.046 142.321 105.92L141.611 105.73V105.257L149.7 102.508L150.173 102.982L150.552 105.825C151.656 104.846 152.901 104.04 154.289 103.409C155.677 102.777 157.048 102.461 158.405 102.461C160.486 102.461 162.079 103.03 163.182 104.167C164.318 105.304 164.885 107.041 164.885 109.379V123.025C164.885 124.257 165.485 125.031 166.683 125.347L167.109 125.489V125.963H155.945V125.489L156.56 125.299C157.663 124.952 158.215 124.178 158.215 122.977V107.863C158.215 105.841 157.206 104.83 155.188 104.83C153.8 104.83 152.286 105.525 150.646 106.915V123.025C150.646 124.257 151.198 125.031 152.302 125.347L152.728 125.489V125.963H141.611Z" fill="#407343"/>
<path d="M177.717 126.673C175.698 126.673 174.121 126.168 172.986 125.157C171.882 124.146 171.33 122.535 171.33 120.324V104.119H168.066V103.646L169.202 103.456C170.179 103.235 171.015 102.919 171.709 102.508C172.434 102.098 173.144 101.545 173.838 100.85L177.717 96.5382H178.19L178.048 103.172H183.346V104.119H178.001V121.177C178.001 122.283 178.237 123.12 178.71 123.688C179.215 124.257 179.845 124.541 180.602 124.541C181.265 124.541 181.848 124.383 182.353 124.067C182.857 123.72 183.362 123.262 183.866 122.693L184.34 123.167C183.709 124.241 182.842 125.094 181.738 125.726C180.634 126.357 179.294 126.673 177.717 126.673Z" fill="#407343"/>
<path d="M99.6124 167.289V166.815L100.558 166.484C101.189 166.294 101.599 166.01 101.788 165.631C102.009 165.252 102.12 164.746 102.12 164.115V139.286C102.12 138.655 102.009 138.149 101.788 137.77C101.568 137.391 101.142 137.091 100.511 136.87L99.6124 136.491V136.017H111.108C115.807 136.017 119.197 136.886 121.278 138.623C123.391 140.329 124.448 142.587 124.448 145.399C124.448 147.199 124.006 148.858 123.123 150.374C122.272 151.858 120.853 153.043 118.866 153.927C116.879 154.812 114.198 155.254 110.824 155.254H109.215V163.973C109.215 165.204 109.83 166.01 111.06 166.389L112.48 166.815V167.289H99.6124ZM109.215 154.307H111.013C112.558 154.307 113.82 154.054 114.798 153.548C115.775 153.043 116.501 152.159 116.974 150.895C117.447 149.632 117.683 147.878 117.683 145.636C117.683 143.361 117.415 141.592 116.879 140.329C116.374 139.065 115.617 138.197 114.608 137.723C113.599 137.217 112.338 136.965 110.824 136.965H109.215V154.307Z" fill="#407343"/>
<path d="M125.9 167.289V166.815L126.467 166.626C127.603 166.247 128.17 165.457 128.17 164.257V138.907C128.17 138.276 128.044 137.802 127.792 137.486C127.539 137.138 127.098 136.886 126.467 136.728L125.852 136.586V136.112L134.509 134.074L135.077 134.501L134.888 141.134V157.339C134.888 158.508 134.888 159.677 134.888 160.845C134.919 161.982 134.935 163.12 134.935 164.257C134.935 164.889 135.061 165.41 135.313 165.82C135.566 166.199 135.991 166.484 136.591 166.673L137.206 166.815V167.289H125.9Z" fill="#407343"/>
<path d="M145.738 168C143.909 168 142.364 167.479 141.102 166.436C139.872 165.394 139.257 163.894 139.257 161.935C139.257 160.45 140.014 159.092 141.528 157.86C143.042 156.597 145.423 155.649 148.671 155.017C149.176 154.923 149.743 154.828 150.374 154.733C151.005 154.607 151.667 154.48 152.361 154.354V150.611C152.361 148.463 152.093 146.962 151.557 146.109C151.052 145.225 150.248 144.783 149.144 144.783C148.387 144.783 147.788 145.035 147.346 145.541C146.905 146.015 146.621 146.852 146.495 148.052L146.4 148.573C146.337 149.932 146.006 150.927 145.407 151.558C144.808 152.19 144.067 152.506 143.184 152.506C142.364 152.506 141.686 152.253 141.149 151.748C140.613 151.243 140.345 150.563 140.345 149.71C140.345 148.415 140.787 147.326 141.67 146.441C142.584 145.557 143.783 144.893 145.265 144.451C146.747 144.009 148.356 143.788 150.09 143.788C152.897 143.788 155.057 144.483 156.571 145.873C158.116 147.231 158.889 149.458 158.889 152.553V163.025C158.889 164.446 159.551 165.157 160.876 165.157H161.917L162.342 165.536C161.743 166.294 161.081 166.879 160.355 167.289C159.662 167.7 158.668 167.905 157.375 167.905C155.988 167.905 154.884 167.589 154.064 166.958C153.275 166.294 152.755 165.426 152.503 164.352C151.557 165.362 150.579 166.231 149.57 166.958C148.592 167.653 147.315 168 145.738 168ZM148.624 165.11C149.254 165.11 149.838 164.968 150.374 164.683C150.942 164.367 151.604 163.894 152.361 163.262V155.302C152.045 155.365 151.73 155.428 151.415 155.491C151.099 155.554 150.737 155.617 150.327 155.681C148.876 156.06 147.709 156.707 146.826 157.623C145.975 158.508 145.549 159.708 145.549 161.224C145.549 162.519 145.848 163.499 146.448 164.162C147.047 164.794 147.772 165.11 148.624 165.11Z" fill="#407343"/>
<path d="M175.048 168C172.903 168 170.948 167.542 169.182 166.626C167.447 165.678 166.06 164.32 165.019 162.551C164.01 160.751 163.505 158.555 163.505 155.965C163.505 153.406 164.057 151.227 165.161 149.426C166.296 147.594 167.794 146.204 169.655 145.257C171.547 144.277 173.613 143.788 175.852 143.788C177.681 143.788 179.226 144.088 180.488 144.688C181.749 145.288 182.711 146.078 183.373 147.057C184.036 148.005 184.367 149 184.367 150.042C184.367 150.927 184.099 151.622 183.563 152.127C183.026 152.601 182.333 152.838 181.481 152.838C180.567 152.838 179.825 152.506 179.258 151.843C178.69 151.179 178.359 150.311 178.264 149.237C178.233 148.542 178.249 147.957 178.312 147.484C178.375 146.978 178.375 146.473 178.312 145.967C178.186 145.43 177.981 145.083 177.697 144.925C177.444 144.735 177.082 144.641 176.609 144.641C174.685 144.641 173.187 145.478 172.115 147.152C171.074 148.826 170.554 151.495 170.554 155.159C170.554 158.35 171.137 160.798 172.304 162.504C173.502 164.178 175.331 165.015 177.791 165.015C179.274 165.015 180.472 164.746 181.387 164.209C182.301 163.672 183.184 162.867 184.036 161.793L184.509 162.172C183.72 164.036 182.506 165.473 180.866 166.484C179.226 167.495 177.287 168 175.048 168Z" fill="#407343"/>
<path d="M198.288 143.788C200.338 143.788 202.088 144.214 203.539 145.067C204.99 145.888 206.093 147.025 206.85 148.479C207.639 149.9 208.033 151.527 208.033 153.359C208.033 153.706 208.017 154.07 207.986 154.449C207.954 154.796 207.891 155.112 207.796 155.396H193.699C193.731 158.808 194.33 161.272 195.497 162.788C196.695 164.273 198.461 165.015 200.795 165.015C202.372 165.015 203.649 164.762 204.627 164.257C205.605 163.751 206.519 163.009 207.371 162.03L207.844 162.456C206.866 164.194 205.557 165.552 203.917 166.531C202.309 167.51 200.369 168 198.099 168C195.86 168 193.873 167.526 192.138 166.579C190.404 165.599 189.048 164.209 188.07 162.409C187.092 160.608 186.603 158.46 186.603 155.965C186.603 153.375 187.171 151.179 188.307 149.379C189.442 147.547 190.893 146.157 192.659 145.209C194.456 144.262 196.333 143.788 198.288 143.788ZM198.146 144.735C197.232 144.735 196.443 145.02 195.781 145.588C195.15 146.125 194.645 147.104 194.267 148.526C193.92 149.916 193.731 151.89 193.699 154.449H201.789C202.104 151.006 201.978 148.526 201.41 147.01C200.843 145.493 199.754 144.735 198.146 144.735Z" fill="#407343"/>
<path d="M217.02 122.715C210.033 121.825 199.1 136.501 199.1 136.501C199.1 136.501 206.721 131.877 217.117 132.049C221.905 132.128 229 127.12 229 127.12C229 127.12 223.252 123.508 217.02 122.715Z" fill="#407343"/>
<path d="M190.865 115.208C186.013 100.626 196.016 85 196.016 85C196.016 85 213.477 99.7218 210.461 116.639C209.072 124.43 191.946 140.938 191.946 140.938C191.946 140.938 194.903 127.342 190.865 115.208Z" fill="#407343"/>
</svg>
