<svg width="109" height="126" viewBox="0 0 109 126" fill="none" xmlns="http://www.w3.org/2000/svg">
<path d="M2.96153 114.055L55.4447 61.5719L64.3265 70.4537L11.8433 122.937C11.8433 122.937 6.37514 123.509 4.30725 121.322C2.32433 119.225 2.96153 114.055 2.96153 114.055Z" fill="#3A3A3A" stroke="#3A3A3A" stroke-width="4"/>
<path d="M76.7063 49.4613C78.6892 51.5584 78.052 56.7282 78.052 56.7282L64.0574 70.7228L55.1756 61.8411L69.1702 47.8464C69.1702 47.8464 74.6384 47.2743 76.7063 49.4613Z" fill="white" stroke="#3A3A3A" stroke-width="4"/>
<path d="M50.8723 26.7073C52.6111 24.5196 52.6809 15 52.6809 15C52.6809 15 52.7513 24.519 54.4894 26.7073C56.2697 28.9488 61 30 61 30C61 30 56.286 31.89 54.4894 34.3902C53.1664 36.2314 52.7807 39.6981 52.6834 42.1675C52.7454 43.802 52.6809 45 52.6809 45C52.6809 45 52.6189 43.8022 52.6834 42.1675C52.5896 39.6954 52.2063 36.2247 50.8723 34.3902C48.9916 31.8038 44 30 44 30C44 30 49.0117 29.0484 50.8723 26.7073Z" fill="white" stroke="#3A3A3A" stroke-width="4"/>
<path d="M94.2553 62.9756C95.585 61.2983 95.6383 54 95.6383 54C95.6383 54 95.6921 61.2979 97.0213 62.9756C98.3827 64.6941 102 65.5 102 65.5C102 65.5 98.3951 66.949 97.0213 68.8659C96.0096 70.2774 95.7146 72.9352 95.6402 74.8284C95.6876 76.0815 95.6383 77 95.6383 77C95.6383 77 95.5909 76.0817 95.6402 74.8284C95.5685 72.9331 95.2754 70.2723 94.2553 68.8659C92.8171 66.8829 89 65.5 89 65.5C89 65.5 92.8325 64.7704 94.2553 62.9756Z" fill="white" stroke="#3A3A3A" stroke-width="4"/>
<path d="M87.8936 16.2195C90.1438 13.3754 90.234 1 90.234 1C90.234 1 90.3252 13.3747 92.5745 16.2195C94.8785 19.1335 101 20.5 101 20.5C101 20.5 94.8995 22.957 92.5745 26.2073C90.8623 28.6008 90.3632 33.1075 90.2373 36.3178C90.3176 38.4426 90.234 40 90.234 40C90.234 40 90.1539 38.4429 90.2373 36.3178C90.1159 33.104 89.6199 28.5921 87.8936 26.2073C85.4597 22.8449 79 20.5 79 20.5C79 20.5 85.4857 19.2629 87.8936 16.2195Z" fill="white" stroke="#3A3A3A" stroke-width="4"/>
</svg>
