<svg width="126" height="123" viewBox="0 0 126 123" fill="none" xmlns="http://www.w3.org/2000/svg">
<path d="M96.736 55.0083C102.491 58.9056 92.6044 67.0318 75.8564 94.717C59.7129 121.403 40.7279 110.899 34.3879 107.752C23.98 102.586 19.7311 70.1038 14.0165 57.091C10.9243 50.0495 20.7591 42.0409 26.6433 58.2211C35.9156 83.7173 41.3565 58.7111 43.2717 49C45.606 37.1644 48.0221 17.4933 54.7717 19.5C59.5925 20.9332 57.4019 29.9415 54.7717 42.113C52.6008 52.1592 51.2974 66.8626 51.2974 66.8626C51.2974 66.8626 54.688 60.9517 58.2993 50.5778C62.4483 38.6599 68.411 16.3047 72.8909 16C81.2703 15.4301 74.7524 34.4791 72.4828 42.113L64.0019 70.6397C64.0019 70.6397 84.3608 29.3553 90.7717 32.5C95.6738 34.9046 90.6067 43.0666 86.2717 51.8356C81.2799 61.9334 72.891 78.53 72.891 78.53C72.891 78.53 93.0226 52.4934 96.736 55.0083Z" fill="white" stroke="#3A3A3A" stroke-width="4"/>
<path d="M42.1509 10.3925C28.4898 18.1725 31.0976 35.5924 34.4656 39.6308" stroke="#3A3A3A" stroke-width="4"/>
<path d="M37.0819 2.41097C18.9449 12.74 22.4072 35.8675 26.8787 41.229" stroke="#3A3A3A" stroke-width="4"/>
<path d="M108.069 52.243C112.013 69.5668 98.3489 81.3427 93.3087 81.8238" stroke="#3A3A3A" stroke-width="4"/>
<path d="M116.955 50C122.191 72.9998 104.05 88.6339 97.3585 89.2727" stroke="#3A3A3A" stroke-width="4"/>
</svg>
