<svg width="32" height="31" viewBox="0 0 32 31" fill="currentColor" stroke="currentColor" xmlns="http://www.w3.org/2000/svg">
<path d="M15.7244 3.485C15.8161 3.48291 15.908 3.48186 16.0002 3.48186C16.0923 3.48186 16.1842 3.48291 16.2759 3.485V1H15.7244V3.485Z"/>
<path d="M24.3276 6.898C24.4584 7.02713 24.5864 7.15929 24.7112 7.29436L26.5298 5.47571L26.1398 5.08573L24.3276 6.898Z"/>
<path d="M27.8579 15.3396C27.8579 15.5245 27.8537 15.7084 27.8453 15.8911H30.6155V15.3396H27.8579Z"/>
<path d="M24.4418 23.667C24.3126 23.7979 24.1805 23.9258 24.0454 24.0506L26.1398 26.145L26.5298 25.755L24.4418 23.667Z"/>
<path d="M16.2759 27.1942C16.1842 27.1963 16.0923 27.1974 16.0002 27.1974C15.908 27.1974 15.8161 27.1963 15.7244 27.1942V30.2308H16.2759V27.1942Z"/>
<path d="M7.95489 24.0506C7.81982 23.9258 7.68766 23.7979 7.55853 23.667L5.47055 25.755L5.86053 26.145L7.95489 24.0506Z"/>
<path d="M4.15498 15.8911C4.14662 15.7084 4.14239 15.5245 4.14239 15.3396L1.38477 15.3396V15.8911H4.15498Z"/>
<path d="M7.67275 6.898C7.54185 7.02713 7.41395 7.15929 7.28914 7.29436L5.47049 5.47571L5.86048 5.08573L7.67275 6.898Z"/>
<path d="M15.7244 3.485C15.8161 3.48291 15.908 3.48186 16.0002 3.48186C16.0923 3.48186 16.1842 3.48291 16.2759 3.485V1H15.7244V3.485Z"/>
<path d="M24.3276 6.898C24.4584 7.02713 24.5864 7.15929 24.7112 7.29436L26.5298 5.47571L26.1398 5.08573L24.3276 6.898Z"/>
<path d="M27.8579 15.3396C27.8579 15.5245 27.8537 15.7084 27.8453 15.8911H30.6155V15.3396H27.8579Z"/>
<path d="M24.4418 23.667C24.3126 23.7979 24.1805 23.9258 24.0454 24.0506L26.1398 26.145L26.5298 25.755L24.4418 23.667Z"/>
<path d="M16.2759 27.1942C16.1842 27.1963 16.0923 27.1974 16.0002 27.1974C15.908 27.1974 15.8161 27.1963 15.7244 27.1942V30.2308H16.2759V27.1942Z"/>
<path d="M7.95489 24.0506C7.81982 23.9258 7.68766 23.7979 7.55853 23.667L5.47055 25.755L5.86053 26.145L7.95489 24.0506Z"/>
<path d="M4.15498 15.8911C4.14662 15.7084 4.14239 15.5245 4.14239 15.3396L1.38477 15.3396V15.8911H4.15498Z"/>
<path d="M7.67275 6.898C7.54185 7.02713 7.41395 7.15929 7.28914 7.29436L5.47049 5.47571L5.86048 5.08573L7.67275 6.898Z"/>
<circle cx="16.0074" cy="15.2379" r="9.12264"/>
</svg>
