<svg width="32" height="31" viewBox="0 0 32 31" fill="none" xmlns="http://www.w3.org/2000/svg">
<path d="M15.7244 3.17641C15.8161 3.17432 15.908 3.17326 16.0002 3.17326C16.0923 3.17326 16.1842 3.17432 16.2759 3.17641V0.691406H15.7244V3.17641Z" fill="currentColor"/>
<path d="M24.3276 6.5894C24.4584 6.71854 24.5864 6.8507 24.7112 6.98576L26.5298 5.16712L26.1398 4.77713L24.3276 6.5894Z" fill="currentColor"/>
<path d="M27.8579 15.031C27.8579 15.2159 27.8537 15.3998 27.8453 15.5826H30.6155V15.031H27.8579Z" fill="currentColor"/>
<path d="M24.4418 23.3584C24.3126 23.4893 24.1805 23.6172 24.0454 23.742L26.1398 25.8364L26.5298 25.4464L24.4418 23.3584Z" fill="currentColor"/>
<path d="M16.2759 26.8857C16.1842 26.8877 16.0923 26.8888 16.0002 26.8888C15.908 26.8888 15.8161 26.8877 15.7244 26.8857V29.9222H16.2759V26.8857Z" fill="currentColor"/>
<path d="M7.95489 23.742C7.81982 23.6172 7.68766 23.4893 7.55853 23.3584L5.47055 25.4464L5.86053 25.8364L7.95489 23.742Z" fill="currentColor"/>
<path d="M4.15498 15.5826C4.14662 15.3998 4.14239 15.2159 4.14239 15.031L1.38477 15.031V15.5826H4.15498Z" fill="currentColor"/>
<path d="M7.67275 6.5894C7.54185 6.71854 7.41395 6.8507 7.28914 6.98577L5.47049 5.16712L5.86048 4.77713L7.67275 6.5894Z" fill="currentColor"/>
<path d="M15.7244 3.17641C15.8161 3.17432 15.908 3.17326 16.0002 3.17326C16.0923 3.17326 16.1842 3.17432 16.2759 3.17641V0.691406H15.7244V3.17641Z" stroke="currentColor"/>
<path d="M24.3276 6.5894C24.4584 6.71854 24.5864 6.8507 24.7112 6.98576L26.5298 5.16712L26.1398 4.77713L24.3276 6.5894Z" stroke="currentColor"/>
<path d="M27.8579 15.031C27.8579 15.2159 27.8537 15.3998 27.8453 15.5826H30.6155V15.031H27.8579Z" stroke="currentColor"/>
<path d="M24.4418 23.3584C24.3126 23.4893 24.1805 23.6172 24.0454 23.742L26.1398 25.8364L26.5298 25.4464L24.4418 23.3584Z" stroke="currentColor"/>
<path d="M16.2759 26.8857C16.1842 26.8877 16.0923 26.8888 16.0002 26.8888C15.908 26.8888 15.8161 26.8877 15.7244 26.8857V29.9222H16.2759V26.8857Z" stroke="currentColor"/>
<path d="M7.95489 23.742C7.81982 23.6172 7.68766 23.4893 7.55853 23.3584L5.47055 25.4464L5.86053 25.8364L7.95489 23.742Z" stroke="currentColor"/>
<path d="M4.15498 15.5826C4.14662 15.3998 4.14239 15.2159 4.14239 15.031L1.38477 15.031V15.5826H4.15498Z" stroke="currentColor"/>
<path d="M7.67275 6.5894C7.54185 6.71854 7.41395 6.8507 7.28914 6.98577L5.47049 5.16712L5.86048 4.77713L7.67275 6.5894Z" stroke="currentColor"/>
<circle cx="16.0074" cy="14.9293" r="9.12264" fill="currentColor" stroke="currentColor"/>
</svg>
