<svg width="32" height="31" viewBox="0 0 32 31" fill="none" xmlns="http://www.w3.org/2000/svg">
<path d="M15.7244 3.71547C15.8161 3.71338 15.908 3.71233 16.0002 3.71233C16.0923 3.71233 16.1842 3.71338 16.2759 3.71547V1.23047H15.7244V3.71547Z" stroke="white"/>
<path d="M24.3275 7.12846C24.4584 7.2576 24.5864 7.38976 24.7112 7.52483L26.5298 5.70618L26.1398 5.31619L24.3275 7.12846Z" stroke="white"/>
<path d="M27.8579 15.5701C27.8579 15.755 27.8537 15.9388 27.8453 16.1216H30.6155V15.5701H27.8579Z" stroke="white"/>
<path d="M24.4418 23.8975C24.3126 24.0284 24.1805 24.1563 24.0454 24.2811L26.1398 26.3755L26.5298 25.9855L24.4418 23.8975Z" stroke="white"/>
<path d="M16.2759 27.4247C16.1842 27.4268 16.0923 27.4279 16.0002 27.4279C15.908 27.4279 15.8161 27.4268 15.7244 27.4247V30.4612H16.2759V27.4247Z" stroke="white"/>
<path d="M7.95489 24.2811C7.81982 24.1563 7.68766 24.0284 7.55852 23.8975L5.47055 25.9855L5.86053 26.3755L7.95489 24.2811Z" stroke="white"/>
<path d="M4.15498 16.1216C4.14662 15.9388 4.14239 15.755 4.14239 15.5701L1.38477 15.5701V16.1216H4.15498Z" stroke="white"/>
<path d="M7.67275 7.12847C7.54185 7.2576 7.41395 7.38976 7.28914 7.52483L5.47049 5.70618L5.86048 5.3162L7.67275 7.12847Z" stroke="white"/>
<circle cx="16.0074" cy="15.4683" r="9.12264" stroke="white"/>
</svg>
