<svg width="301" height="264" viewBox="0 0 301 264" fill="none" xmlns="http://www.w3.org/2000/svg">
<path d="M186.448 203.649C202.545 203.649 215.631 190.95 215.947 175.166C209.259 155.627 197.108 138.516 181.256 125.547V129.225C181.256 134.739 174.193 137.155 170.724 132.829L150.47 107.567C137.418 102.475 123.167 99.6738 108.244 99.6738C99.0317 99.6738 90.0758 100.741 81.5 102.756V174.581C81.5 190.635 94.7097 203.649 111.005 203.649L114.752 203.649V135.039C114.752 129.513 121.84 127.104 125.298 131.454L182.701 203.649L186.448 203.649Z" fill="#848484"/>
<path d="M215.953 90.2847V174.581L215.947 175.166C209.259 155.627 197.108 138.516 181.256 125.547V61.2168L186.448 61.2168C202.743 61.2168 215.953 74.2309 215.953 90.2847Z" fill="#C7C7C7"/>
<path d="M81.5 90.2847C81.5 74.2309 94.7097 61.2168 111.005 61.2168C112.46 61.2168 113.836 61.8773 114.746 63.0123L150.47 107.567C137.418 102.475 123.167 99.6738 108.244 99.6738C99.0317 99.6738 90.0758 100.741 81.5 102.756V90.2847Z" fill="#C7C7C7"/>
<path d="M182.718 57V129.344C182.718 134.887 175.636 137.316 172.157 132.967L116.019 62.7777C115.108 61.6386 113.728 60.9755 112.269 60.9755V60.9755C95.9285 60.9755 82.6816 74.0585 82.6816 90.1972V174.94C82.6816 191.079 95.2543 204.754 114.144 204.754M116.027 208.067V135.188C116.027 129.634 123.135 127.211 126.603 131.584L184.98 204.754C201.321 204.754 217.513 191.079 217.513 174.94V90.1972C217.513 74.0585 204.919 60.1017 182.718 60.1017" stroke="#3A3A3A" stroke-width="6"/>
</svg>
