<svg width="273" height="197" viewBox="0 0 273 197" fill="none" xmlns="http://www.w3.org/2000/svg">
<path fill-rule="evenodd" clip-rule="evenodd" d="M72 78.2847C72 62.2309 85.0141 49.2168 101.068 49.2168H103.335L159.903 120.829C163.321 125.155 170.279 122.739 170.279 117.225V49.2168L103.335 49.2168H175.394C191.448 49.2168 204.462 62.2309 204.462 78.2847V162.581C204.462 178.635 191.448 191.649 175.394 191.649H101.068C85.0141 191.649 72 178.635 72 162.581V78.2847ZM104.76 191.649L104.759 123.039C104.759 117.513 111.742 115.104 115.15 119.454L171.703 191.649L104.76 191.649Z" fill="#B2C7F9"/>
<mask id="mask0_1321_11672" style="mask-type:alpha" maskUnits="userSpaceOnUse" x="72" y="49" width="133" height="143">
<path fill-rule="evenodd" clip-rule="evenodd" d="M72 78.2847C72 62.2309 85.0141 49.2168 101.068 49.2168H103.335L159.903 120.829C163.321 125.155 170.279 122.739 170.279 117.225V49.2168L103.335 49.2168H139.365H175.394C191.448 49.2168 204.462 62.2309 204.462 78.2847V162.581C204.462 178.635 191.448 191.649 175.394 191.649H101.068C85.0141 191.649 72 178.635 72 162.581V78.2847ZM104.76 191.649L104.759 123.039C104.759 117.513 111.742 115.104 115.15 119.454L171.703 191.649L104.76 191.649Z" fill="#7DB48F"/>
</mask>
<g mask="url(#mask0_1321_11672)">
<path d="M210.158 198.059C210.158 259.023 160.099 308.444 98.3487 308.444C36.5979 308.444 -13.4609 259.023 -13.4609 198.059C-13.4609 137.095 36.5979 87.6738 98.3487 87.6738C160.099 87.6738 210.158 137.095 210.158 198.059Z" fill="#62A679"/>
</g>
<path d="M171.719 45V117.344C171.719 122.887 164.742 125.316 161.315 120.967L105.995 50.7613C105.106 49.6336 103.749 48.9755 102.314 48.9755V48.9755C86.2148 48.9755 73.1641 62.0585 73.1641 78.1972V162.94C73.1641 179.079 85.5505 192.754 104.161 192.754M106.016 196.067V123.188C106.016 117.634 113.018 115.211 116.435 119.584L173.948 192.754C190.047 192.754 205.999 179.079 205.999 162.94V78.1972C205.999 62.0585 193.592 48.1017 171.719 48.1017" stroke="#4C74FF" stroke-width="6"/>
<path d="M257.014 29.1404L221.701 49.5073L218.949 45.7609L252.249 20.5579L257.014 29.1404Z" fill="#4C74FF"/>
<path d="M230.077 2.15463L209.734 38.3182L213.474 41.1513L237.502 7.7702L230.077 2.15463Z" fill="#4C74FF"/>
<path d="M17.9509 91.2373C22.5132 83.7974 25.4015 68.9066 25.4015 68.9066C25.4015 68.9066 24.5674 84.8367 29.6039 91.6268C32.9523 96.1411 43.2306 98.497 43.2306 98.497C43.2306 98.497 33.6289 99.7011 29.9534 106.543C25.6931 114.474 25.733 136.6 25.733 136.6C25.733 136.6 24.7206 114.791 20.2 107.865C16.3978 102.04 4.66265 97.8635 4.66265 97.8635C4.66265 97.8635 14.3233 97.1529 17.9509 91.2373Z" stroke="#4C74FF" stroke-width="8"/>
<path d="M256.904 169.382C252.927 175.551 250.785 194.5 250.785 194.5C250.785 194.5 250.976 174.717 246.036 169.181C242.752 165.501 234 163.793 234 163.793C234 163.793 241.991 162.578 245.163 156.91C248.841 150.34 249.5 126 249.5 126C249.5 126 249.735 150.069 254.199 155.722C257.954 160.477 269.038 163.793 269.038 163.793C269.038 163.793 260.066 164.477 256.904 169.382Z" stroke="#4C74FF" stroke-width="8"/>
</svg>
