<svg width="307" height="230" viewBox="0 0 307 230" fill="none" xmlns="http://www.w3.org/2000/svg">
<path d="M42.535 207.21L71.5963 178.622L75.2019 181.557L49.3046 214.32L42.535 207.21Z" fill="#00A60A"/>
<path d="M75.3887 226.557L85.9899 186.441L81.6576 184.639L66.7901 222.988L75.3887 226.557Z" fill="#00A60A"/>
<path d="M27.5655 189.841L63.6021 169.274L61.8496 164.922L24.0817 181.208L27.5655 189.841Z" fill="#00A60A"/>
<path d="M71 128.755H73.3545C76.1159 128.755 78.3545 130.994 78.3545 133.755V161C78.3545 166.523 82.8317 171 88.3545 171H223C234.046 171 243 162.046 243 151V101.204C243 95.6812 238.523 91.2041 233 91.2041H229.311C226.549 91.2041 224.311 88.9655 224.311 86.2041V66C224.311 60.4772 219.833 56 214.311 56H81C69.9543 56 61 64.9543 61 76V118.755C61 124.278 65.4772 128.755 71 128.755Z" fill="#E1E1CF" stroke="#00A60A" stroke-width="6"/>
<path d="M275.378 129.175C280.179 120.234 282.761 102.681 282.761 102.681C282.761 102.681 282.539 121.336 288.514 128.994C292.486 134.085 304.162 136.276 304.162 136.276C304.162 136.276 293.408 138.206 289.578 146.4C285.139 155.898 286.179 181.743 286.179 181.743C286.179 181.743 284.058 156.322 278.658 148.477C274.116 141.879 260.717 137.641 260.717 137.641C260.717 137.641 271.561 136.283 275.378 129.175Z" stroke="#00A60A" stroke-width="8"/>
<path d="M21.5305 31.3736C27.1852 21.4795 30.1328 2.00356 30.1328 2.00356C30.1328 2.00356 30.004 22.7206 37.1784 31.2685C41.9481 36.9514 55.875 39.4702 55.875 39.4702C55.875 39.4702 43.0763 41.5359 38.5734 50.6082C33.3541 61.1238 34.7818 89.8351 34.7818 89.8351C34.7818 89.8351 32.0699 61.5863 25.5788 52.8348C20.1192 45.474 4.12592 40.6691 4.12592 40.6691C4.12592 40.6691 17.0343 39.2406 21.5305 31.3736Z" stroke="#00A60A" stroke-width="8"/>
<path d="M78 108.963V108.489L78.9461 108.157C79.5769 107.968 79.9868 107.683 80.1761 107.304C80.3968 106.925 80.5072 106.42 80.5072 105.788V80.9597C80.5072 80.328 80.3968 79.8225 80.1761 79.4435C79.9553 79.0644 79.5296 78.7643 78.8988 78.5432L78 78.1642V77.6903H89.4953C94.1943 77.6903 97.5846 78.559 99.666 80.2964C101.779 82.0021 102.835 84.2607 102.835 87.072C102.835 88.8725 102.394 90.5309 101.511 92.0471C100.659 93.5318 99.2403 94.7163 97.2534 95.6008C95.2666 96.4853 92.5859 96.9275 89.2115 96.9275H87.6031V105.646C87.6031 106.878 88.218 107.683 89.448 108.062L90.8672 108.489V108.963H78ZM87.6031 95.9799H89.4007C90.946 95.9799 92.2075 95.7272 93.1851 95.2217C94.1628 94.7163 94.8881 93.8319 95.3612 92.5683C95.8343 91.3048 96.0708 89.5517 96.0708 87.3089C96.0708 85.0346 95.8027 83.2656 95.2666 82.0021C94.762 80.7386 94.0051 79.8699 92.9959 79.3961C91.9867 78.8907 90.7252 78.638 89.2115 78.638H87.6031V95.9799Z" fill="#407343"/>
<path d="M104.287 108.963V108.489L104.855 108.299C105.99 107.92 106.558 107.13 106.558 105.93V80.5807C106.558 79.9489 106.432 79.4751 106.179 79.1592C105.927 78.8117 105.486 78.559 104.855 78.4011L104.24 78.2589V77.7851L112.897 75.7477L113.464 76.1741L113.275 82.8076V99.0123C113.275 100.181 113.275 101.35 113.275 102.519C113.307 103.656 113.323 104.793 113.323 105.93C113.323 106.562 113.449 107.083 113.701 107.494C113.953 107.873 114.379 108.157 114.978 108.347L115.593 108.489V108.963H104.287Z" fill="#407343"/>
<path d="M124.126 109.673C122.296 109.673 120.751 109.152 119.49 108.11C118.26 107.067 117.645 105.567 117.645 103.608C117.645 102.124 118.402 100.765 119.915 99.5335C121.429 98.27 123.81 97.3224 127.059 96.6906C127.563 96.5958 128.131 96.5011 128.762 96.4063C129.392 96.2799 130.055 96.1536 130.748 96.0272V92.284C130.748 90.1361 130.48 88.6356 129.944 87.7827C129.44 86.8983 128.635 86.456 127.532 86.456C126.775 86.456 126.176 86.7087 125.734 87.2142C125.293 87.688 125.009 88.5251 124.883 89.7254L124.788 90.2466C124.725 91.6049 124.394 92.5999 123.795 93.2317C123.195 93.8635 122.454 94.1793 121.571 94.1793C120.751 94.1793 120.073 93.9266 119.537 93.4212C119.001 92.9158 118.733 92.2367 118.733 91.3838C118.733 90.0887 119.174 88.9989 120.057 88.1144C120.972 87.23 122.17 86.5666 123.653 86.1244C125.135 85.6821 126.743 85.461 128.478 85.461C131.285 85.461 133.445 86.156 134.959 87.5458C136.504 88.9041 137.277 91.1311 137.277 94.2267V104.698C137.277 106.12 137.939 106.83 139.263 106.83H140.304L140.73 107.209C140.131 107.968 139.468 108.552 138.743 108.963C138.049 109.373 137.056 109.579 135.763 109.579C134.375 109.579 133.271 109.263 132.451 108.631C131.663 107.968 131.143 107.099 130.89 106.025C129.944 107.036 128.967 107.904 127.957 108.631C126.98 109.326 125.703 109.673 124.126 109.673ZM127.011 106.783C127.642 106.783 128.225 106.641 128.762 106.357C129.329 106.041 129.992 105.567 130.748 104.935V96.9749C130.433 97.0381 130.118 97.1012 129.802 97.1644C129.487 97.2276 129.124 97.2908 128.714 97.3539C127.264 97.733 126.097 98.3806 125.214 99.2966C124.362 100.181 123.936 101.381 123.936 102.898C123.936 104.193 124.236 105.172 124.835 105.835C125.434 106.467 126.16 106.783 127.011 106.783Z" fill="#407343"/>
<path d="M141.611 108.963V108.489L142.273 108.299C143.377 107.983 143.929 107.209 143.929 105.977V91.1469C143.929 90.4519 143.819 89.9465 143.598 89.6306C143.377 89.2832 142.951 89.0463 142.321 88.9199L141.611 88.7304V88.2566L149.7 85.5084L150.173 85.9822L150.552 88.8252C151.656 87.8459 152.901 87.0404 154.289 86.4087C155.677 85.7769 157.048 85.461 158.405 85.461C160.486 85.461 162.079 86.0296 163.182 87.1668C164.318 88.3039 164.885 90.0413 164.885 92.3788V106.025C164.885 107.257 165.485 108.031 166.683 108.347L167.109 108.489V108.963H155.945V108.489L156.56 108.299C157.663 107.952 158.215 107.178 158.215 105.977V90.8626C158.215 88.8409 157.206 87.8301 155.188 87.8301C153.8 87.8301 152.286 88.5251 150.646 89.9149V106.025C150.646 107.257 151.198 108.031 152.302 108.347L152.728 108.489V108.963H141.611Z" fill="#407343"/>
<path d="M177.717 109.673C175.698 109.673 174.121 109.168 172.986 108.157C171.882 107.146 171.33 105.535 171.33 103.324V87.1194H168.066V86.6456L169.202 86.456C170.179 86.2349 171.015 85.919 171.709 85.5084C172.434 85.0978 173.144 84.545 173.838 83.85L177.717 79.5382H178.19L178.048 86.1718H183.346V87.1194H178.001V104.177C178.001 105.283 178.237 106.12 178.71 106.688C179.215 107.257 179.845 107.541 180.602 107.541C181.265 107.541 181.848 107.383 182.353 107.067C182.857 106.72 183.362 106.262 183.866 105.693L184.34 106.167C183.709 107.241 182.842 108.094 181.738 108.726C180.634 109.357 179.294 109.673 177.717 109.673Z" fill="#407343"/>
<path d="M99.6124 150.289V149.815L100.558 149.484C101.189 149.294 101.599 149.01 101.788 148.631C102.009 148.252 102.12 147.746 102.12 147.115V122.286C102.12 121.655 102.009 121.149 101.788 120.77C101.568 120.391 101.142 120.091 100.511 119.87L99.6124 119.491V119.017H111.108C115.807 119.017 119.197 119.886 121.278 121.623C123.391 123.329 124.448 125.587 124.448 128.399C124.448 130.199 124.006 131.858 123.123 133.374C122.272 134.858 120.853 136.043 118.866 136.927C116.879 137.812 114.198 138.254 110.824 138.254H109.215V146.973C109.215 148.204 109.83 149.01 111.06 149.389L112.48 149.815V150.289H99.6124ZM109.215 137.307H111.013C112.558 137.307 113.82 137.054 114.798 136.548C115.775 136.043 116.501 135.159 116.974 133.895C117.447 132.632 117.683 130.878 117.683 128.636C117.683 126.361 117.415 124.592 116.879 123.329C116.374 122.065 115.617 121.197 114.608 120.723C113.599 120.217 112.338 119.965 110.824 119.965H109.215V137.307Z" fill="#407343"/>
<path d="M125.9 150.289V149.815L126.467 149.626C127.603 149.247 128.17 148.457 128.17 147.257V121.907C128.17 121.276 128.044 120.802 127.792 120.486C127.539 120.138 127.098 119.886 126.467 119.728L125.852 119.586V119.112L134.509 117.074L135.077 117.501L134.888 124.134V140.339C134.888 141.508 134.888 142.677 134.888 143.845C134.919 144.982 134.935 146.12 134.935 147.257C134.935 147.889 135.061 148.41 135.313 148.82C135.566 149.199 135.991 149.484 136.591 149.673L137.206 149.815V150.289H125.9Z" fill="#407343"/>
<path d="M145.738 151C143.909 151 142.364 150.479 141.102 149.436C139.872 148.394 139.257 146.894 139.257 144.935C139.257 143.45 140.014 142.092 141.528 140.86C143.042 139.597 145.423 138.649 148.671 138.017C149.176 137.923 149.743 137.828 150.374 137.733C151.005 137.607 151.667 137.48 152.361 137.354V133.611C152.361 131.463 152.093 129.962 151.557 129.109C151.052 128.225 150.248 127.783 149.144 127.783C148.387 127.783 147.788 128.035 147.346 128.541C146.905 129.015 146.621 129.852 146.495 131.052L146.4 131.573C146.337 132.932 146.006 133.927 145.407 134.558C144.808 135.19 144.067 135.506 143.184 135.506C142.364 135.506 141.686 135.253 141.149 134.748C140.613 134.243 140.345 133.563 140.345 132.71C140.345 131.415 140.787 130.326 141.67 129.441C142.584 128.557 143.783 127.893 145.265 127.451C146.747 127.009 148.356 126.788 150.09 126.788C152.897 126.788 155.057 127.483 156.571 128.873C158.116 130.231 158.889 132.458 158.889 135.553V146.025C158.889 147.446 159.551 148.157 160.876 148.157H161.917L162.342 148.536C161.743 149.294 161.081 149.879 160.355 150.289C159.662 150.7 158.668 150.905 157.375 150.905C155.988 150.905 154.884 150.589 154.064 149.958C153.275 149.294 152.755 148.426 152.503 147.352C151.557 148.362 150.579 149.231 149.57 149.958C148.592 150.653 147.315 151 145.738 151ZM148.624 148.11C149.254 148.11 149.838 147.968 150.374 147.683C150.942 147.367 151.604 146.894 152.361 146.262V138.302C152.045 138.365 151.73 138.428 151.415 138.491C151.099 138.554 150.737 138.617 150.327 138.681C148.876 139.06 147.709 139.707 146.826 140.623C145.975 141.508 145.549 142.708 145.549 144.224C145.549 145.519 145.848 146.499 146.448 147.162C147.047 147.794 147.772 148.11 148.624 148.11Z" fill="#407343"/>
<path d="M175.048 151C172.903 151 170.948 150.542 169.182 149.626C167.447 148.678 166.06 147.32 165.019 145.551C164.01 143.751 163.505 141.555 163.505 138.965C163.505 136.406 164.057 134.227 165.161 132.426C166.296 130.594 167.794 129.204 169.655 128.257C171.547 127.277 173.613 126.788 175.852 126.788C177.681 126.788 179.226 127.088 180.488 127.688C181.749 128.288 182.711 129.078 183.373 130.057C184.036 131.005 184.367 132 184.367 133.042C184.367 133.927 184.099 134.622 183.563 135.127C183.026 135.601 182.333 135.838 181.481 135.838C180.567 135.838 179.825 135.506 179.258 134.843C178.69 134.179 178.359 133.311 178.264 132.237C178.233 131.542 178.249 130.957 178.312 130.484C178.375 129.978 178.375 129.473 178.312 128.967C178.186 128.43 177.981 128.083 177.697 127.925C177.444 127.735 177.082 127.641 176.609 127.641C174.685 127.641 173.187 128.478 172.115 130.152C171.074 131.826 170.554 134.495 170.554 138.159C170.554 141.35 171.137 143.798 172.304 145.504C173.502 147.178 175.331 148.015 177.791 148.015C179.274 148.015 180.472 147.746 181.387 147.209C182.301 146.672 183.184 145.867 184.036 144.793L184.509 145.172C183.72 147.036 182.506 148.473 180.866 149.484C179.226 150.495 177.287 151 175.048 151Z" fill="#407343"/>
<path d="M198.288 126.788C200.338 126.788 202.088 127.214 203.539 128.067C204.99 128.888 206.093 130.025 206.85 131.479C207.639 132.9 208.033 134.527 208.033 136.359C208.033 136.706 208.017 137.07 207.986 137.449C207.954 137.796 207.891 138.112 207.796 138.396H193.699C193.731 141.808 194.33 144.272 195.497 145.788C196.695 147.273 198.461 148.015 200.795 148.015C202.372 148.015 203.649 147.762 204.627 147.257C205.605 146.751 206.519 146.009 207.371 145.03L207.844 145.456C206.866 147.194 205.557 148.552 203.917 149.531C202.309 150.51 200.369 151 198.099 151C195.86 151 193.873 150.526 192.138 149.579C190.404 148.599 189.048 147.209 188.07 145.409C187.092 143.608 186.603 141.46 186.603 138.965C186.603 136.375 187.171 134.179 188.307 132.379C189.442 130.547 190.893 129.157 192.659 128.209C194.456 127.262 196.333 126.788 198.288 126.788ZM198.146 127.735C197.232 127.735 196.443 128.02 195.781 128.588C195.15 129.125 194.645 130.104 194.267 131.526C193.92 132.916 193.731 134.89 193.699 137.449H201.789C202.104 134.006 201.978 131.526 201.41 130.01C200.843 128.493 199.754 127.735 198.146 127.735Z" fill="#407343"/>
<path d="M217.02 105.715C210.033 104.825 199.1 119.501 199.1 119.501C199.1 119.501 206.721 114.877 217.117 115.049C221.905 115.128 229 110.12 229 110.12C229 110.12 223.252 106.508 217.02 105.715Z" fill="#407343"/>
<path d="M190.865 98.2078C186.013 83.6258 196.016 68 196.016 68C196.016 68 213.477 82.7218 210.461 99.6391C209.072 107.43 191.946 123.938 191.946 123.938C191.946 123.938 194.903 110.342 190.865 98.2078Z" fill="#407343"/>
</svg>
