<svg width="329" height="426" viewBox="0 0 329 426" fill="none" xmlns="http://www.w3.org/2000/svg">
<path d="M200.787 159.072C192.32 173.132 181.232 186.99 167.524 200.648L10.886 362.733V426H329V349.477H132.984L232.235 248.249C256.023 224.147 275.376 200.447 290.294 177.149C305.615 153.448 313.276 130.552 313.276 108.458C313.276 86.3649 307.026 67.2843 294.528 51.2164C282.432 34.7468 265.498 22.0933 243.726 13.256C222.357 4.41866 197.561 0 169.338 0C139.502 0 110.271 5.62376 81.6452 16.8713C53.4221 27.7171 26.2071 42.5799 0 61.4597L37.4963 130.15C56.4461 114.082 76.2022 101.429 96.7647 92.1895C117.73 82.5488 137.285 77.7284 155.428 77.7284C173.572 77.7284 187.683 81.5446 197.763 89.1768C208.246 96.8091 213.487 107.655 213.487 121.714C213.487 132.56 209.254 145.013 200.787 159.072Z" fill="white" fill-opacity="0.8"/>
</svg>
