<svg width="329" height="423" viewBox="0 0 329 423" fill="none" xmlns="http://www.w3.org/2000/svg">
<path d="M295.441 209.708C273.467 189.792 244.503 177.843 208.546 173.86L185.739 170.642L308.026 54.9661V0H20.9745L21.5738 74.0847H191.56L85.0965 177.445V230.021H152.814C179.182 230.021 199.557 235 213.94 244.958C228.722 254.915 236.113 269.653 236.113 289.169C236.113 301.517 232.917 312.47 226.525 322.03C220.132 331.191 210.744 338.36 198.359 343.538C185.974 348.318 170.992 350.708 153.413 350.708C132.639 350.708 112.264 346.924 92.2878 339.356C72.3121 331.788 53.7347 320.835 36.5555 306.496L0 374.008C19.9757 388.746 44.1463 400.695 72.5119 409.856C101.277 418.619 130.641 423 160.605 423C194.963 423 224.727 417.424 249.896 406.271C275.066 394.72 294.442 378.788 308.026 358.475C322.008 337.763 329 314.263 329 287.975C329 255.314 317.814 229.225 295.441 209.708Z" fill="white" fill-opacity="0.8"/>
</svg>
