<svg width="45" height="36" viewBox="0 0 45 36" fill="none" xmlns="http://www.w3.org/2000/svg">
<path d="M27.6475 0.926327C27.0545 0.347817 26.1048 0.359541 25.5263 0.952514C24.9478 1.54549 24.9595 2.49516 25.5525 3.07367L27.6475 0.926327ZM43 18L44.0475 19.0737C44.3368 18.7914 44.5 18.4042 44.5 18C44.5 17.5958 44.3368 17.2086 44.0475 16.9263L43 18ZM25.5525 32.9263C24.9595 33.5048 24.9478 34.4545 25.5263 35.0475C26.1048 35.6405 27.0545 35.6522 27.6475 35.0737L25.5525 32.9263ZM2 16.5C1.17157 16.5 0.5 17.1716 0.5 18C0.5 18.8284 1.17157 19.5 2 19.5V16.5ZM25.5525 3.07367L41.9525 19.0737L44.0475 16.9263L27.6475 0.926327L25.5525 3.07367ZM27.6475 35.0737L44.0475 19.0737L41.9525 16.9263L25.5525 32.9263L27.6475 35.0737ZM43 16.5H2V19.5H43V16.5Z" fill="white"/>
</svg>
